<svg version="1.1" id="Layer_1" xmlns="http://www.w3.org/2000/svg" xmlns:xlink="http://www.w3.org/1999/xlink" x="0px" y="0px"
	 width="100%" viewBox="0 0 854 551" enable-background="new 0 0 854 551" xml:space="preserve">
<path fill="#010101" opacity="1.000000" stroke="none" 
	d="
M566.000000,552.000000 
	C377.333344,552.000000 189.166672,552.000000 1.000000,552.000000 
	C1.000000,368.333344 1.000000,184.666672 1.000000,1.000000 
	C285.666656,1.000000 570.333313,1.000000 855.000000,1.000000 
	C855.000000,184.666672 855.000000,368.333344 855.000000,552.000000 
	C758.833313,552.000000 662.666687,552.000000 566.000000,552.000000 
M43.608788,378.903381 
	C45.737137,382.055756 47.865486,385.208130 49.937534,388.277100 
	C34.362892,411.080902 18.940453,433.661865 2.967411,457.048981 
	C39.141476,457.048981 74.213997,457.048981 109.668518,457.048981 
	C109.668518,486.735107 109.668518,515.989319 109.668518,545.205688 
	C151.965302,545.205688 193.875412,545.205688 236.203827,545.205688 
	C236.203827,515.659119 236.203827,486.412506 236.203827,457.298767 
	C248.705658,457.298767 260.785675,457.298767 273.215576,457.298767 
	C273.215576,486.843292 273.215576,516.091309 273.215576,545.480591 
	C315.489227,545.480591 357.405823,545.480591 399.862457,545.480591 
	C399.862457,515.918335 399.862457,486.560089 399.862457,457.340729 
	C412.140900,457.340729 423.876526,457.340729 435.976288,457.340729 
	C435.976288,486.932068 435.976288,516.185242 435.976288,545.480469 
	C478.226074,545.480469 520.101624,545.480469 562.339783,545.480469 
	C562.339783,515.866211 562.339783,486.599915 562.339783,457.274048 
	C574.280334,457.274048 585.854553,457.274048 597.856873,457.274048 
	C597.856873,486.787537 597.856873,516.031189 597.856873,545.354919 
	C640.174500,545.354919 682.059937,545.354919 724.367676,545.354919 
	C724.367676,515.767456 724.367676,486.512177 724.367676,456.881439 
	C766.522888,456.881439 808.255981,456.881439 850.864258,456.881439 
	C834.979919,433.624420 819.550415,411.033295 803.994507,388.257141 
	C819.462830,365.681519 834.918396,343.124512 850.916992,319.775085 
	C808.132202,319.775085 766.404907,319.775085 724.035889,319.775085 
	C724.035889,231.864182 724.035889,144.396637 724.035889,56.325737 
	C722.757202,57.113655 722.193909,57.413010 721.681763,57.783138 
	C681.338135,86.937256 641.021362,116.128777 600.605835,145.182785 
	C597.978516,147.071503 597.753723,149.178497 597.755859,151.916351 
	C597.797546,205.910034 597.786865,259.903778 597.786865,313.897522 
	C597.786865,315.813263 597.786865,317.728973 597.786865,319.584534 
	C585.548279,319.584534 574.104309,319.584534 561.991699,319.584534 
	C561.991699,270.883331 561.991699,222.424591 561.991699,173.179489 
	C543.575256,186.555313 525.975586,199.337875 508.253418,212.209442 
	C484.264191,195.017776 460.403137,177.917969 435.749603,160.250229 
	C435.749603,213.978012 435.749603,266.689728 435.749603,319.546875 
	C423.536560,319.546875 411.800018,319.546875 399.728577,319.546875 
	C399.728577,317.451691 399.728577,315.639618 399.728577,313.827545 
	C399.728546,255.500992 399.684692,197.174316 399.829132,138.848114 
	C399.838562,135.039948 398.628204,132.873367 395.609375,130.734192 
	C380.125183,119.761940 364.746765,108.637299 349.472321,97.374771 
	C346.598267,95.255630 344.532654,94.842308 341.136078,96.577606 
	C319.988312,107.381851 298.713959,117.941994 277.373505,128.361664 
	C274.082489,129.968536 272.940552,131.699203 272.949615,135.431900 
	C273.093781,194.924637 273.051147,254.417831 273.051147,313.910919 
	C273.051147,315.823792 273.051147,317.736633 273.051147,319.630859 
	C260.365906,319.630859 248.425827,319.630859 236.097748,319.630859 
	C236.097748,262.859802 236.097748,206.287247 236.097748,148.958847 
	C193.475342,170.268982 151.467331,191.271942 109.273125,212.367981 
	C109.273125,248.163330 109.273125,283.772369 109.273125,319.988403 
	C73.961395,319.988403 38.970158,319.988403 3.163327,319.988403 
	C16.855562,339.972656 30.000635,359.158295 43.608788,378.903381 
M298.539429,59.929592 
	C312.497772,52.937580 326.521515,46.071136 340.366211,38.860897 
	C343.626007,37.163227 345.698364,37.324139 348.696533,39.498367 
	C401.890869,78.074409 455.188568,116.507950 508.472229,154.978180 
	C556.494385,120.026375 604.486816,85.096184 652.700256,50.005180 
	C657.635010,56.895111 662.345093,63.471302 667.304016,70.394966 
	C677.319580,48.739365 687.058777,27.681341 696.991577,6.204726 
	C673.316284,8.742890 650.406494,11.198993 626.827576,13.726826 
	C632.040710,21.063608 636.715088,27.642239 641.442078,34.294888 
	C596.809082,66.844215 552.627319,99.064453 508.511688,131.236435 
	C455.601013,92.979073 403.008698,54.992664 350.508820,16.878838 
	C347.693176,14.834729 345.666473,14.677864 342.605225,16.214619 
	C266.582367,54.378059 190.507675,92.438210 114.445900,130.524155 
	C112.853462,131.321533 111.304932,132.206619 109.562210,133.144241 
	C112.454887,138.981461 115.165939,144.452179 118.049026,150.270050 
	C178.197220,120.139618 238.020630,90.171898 298.539429,59.929592 
z"/>
<path fill="#FEFEFE" opacity="1.000000" stroke="none" 
	d="
M43.377247,378.623657 
	C30.000635,359.158295 16.855562,339.972656 3.163327,319.988403 
	C38.970158,319.988403 73.961395,319.988403 109.273125,319.988403 
	C109.273125,283.772369 109.273125,248.163330 109.273125,212.367981 
	C151.467331,191.271942 193.475342,170.268982 236.097748,148.958847 
	C236.097748,206.287247 236.097748,262.859802 236.097748,319.630859 
	C248.425827,319.630859 260.365906,319.630859 273.051147,319.630859 
	C273.051147,317.736633 273.051147,315.823792 273.051147,313.910919 
	C273.051147,254.417831 273.093781,194.924637 272.949615,135.431900 
	C272.940552,131.699203 274.082489,129.968536 277.373505,128.361664 
	C298.713959,117.941994 319.988312,107.381851 341.136078,96.577606 
	C344.532654,94.842308 346.598267,95.255630 349.472321,97.374771 
	C364.746765,108.637299 380.125183,119.761940 395.609375,130.734192 
	C398.628204,132.873367 399.838562,135.039948 399.829132,138.848114 
	C399.684692,197.174316 399.728546,255.500992 399.728577,313.827545 
	C399.728577,315.639618 399.728577,317.451691 399.728577,319.546875 
	C411.800018,319.546875 423.536560,319.546875 435.749603,319.546875 
	C435.749603,266.689728 435.749603,213.978012 435.749603,160.250229 
	C460.403137,177.917969 484.264191,195.017776 508.253418,212.209442 
	C525.975586,199.337875 543.575256,186.555313 561.991699,173.179489 
	C561.991699,222.424591 561.991699,270.883331 561.991699,319.584534 
	C574.104309,319.584534 585.548279,319.584534 597.786865,319.584534 
	C597.786865,317.728973 597.786865,315.813263 597.786865,313.897522 
	C597.786865,259.903778 597.797546,205.910034 597.755859,151.916351 
	C597.753723,149.178497 597.978516,147.071503 600.605835,145.182785 
	C641.021362,116.128777 681.338135,86.937256 721.681763,57.783138 
	C722.193909,57.413010 722.757202,57.113655 724.035889,56.325737 
	C724.035889,144.396637 724.035889,231.864182 724.035889,319.775085 
	C766.404907,319.775085 808.132202,319.775085 850.916992,319.775085 
	C834.918396,343.124512 819.462830,365.681519 803.994507,388.257141 
	C819.550415,411.033295 834.979919,433.624420 850.864258,456.881439 
	C808.255981,456.881439 766.522888,456.881439 724.367676,456.881439 
	C724.367676,486.512177 724.367676,515.767456 724.367676,545.354919 
	C682.059937,545.354919 640.174500,545.354919 597.856873,545.354919 
	C597.856873,516.031189 597.856873,486.787537 597.856873,457.274048 
	C585.854553,457.274048 574.280334,457.274048 562.339783,457.274048 
	C562.339783,486.599915 562.339783,515.866211 562.339783,545.480469 
	C520.101624,545.480469 478.226074,545.480469 435.976288,545.480469 
	C435.976288,516.185242 435.976288,486.932068 435.976288,457.340729 
	C423.876526,457.340729 412.140900,457.340729 399.862457,457.340729 
	C399.862457,486.560089 399.862457,515.918335 399.862457,545.480591 
	C357.405823,545.480591 315.489227,545.480591 273.215576,545.480591 
	C273.215576,516.091309 273.215576,486.843292 273.215576,457.298767 
	C260.785675,457.298767 248.705658,457.298767 236.203827,457.298767 
	C236.203827,486.412506 236.203827,515.659119 236.203827,545.205688 
	C193.875412,545.205688 151.965302,545.205688 109.668518,545.205688 
	C109.668518,515.989319 109.668518,486.735107 109.668518,457.048981 
	C74.213997,457.048981 39.141476,457.048981 2.967411,457.048981 
	C18.940453,433.661865 34.362892,411.080902 49.937534,388.277100 
	C47.865486,385.208130 45.737137,382.055756 43.377247,378.623657 
M206.903763,380.959747 
	C206.720673,380.805939 206.537567,380.652130 206.303146,379.696564 
	C207.187073,375.585876 208.071014,371.475220 209.013229,367.093475 
	C206.560852,367.481720 204.932556,367.818756 203.286987,367.984375 
	C199.153534,368.400360 196.357529,369.743652 195.995941,374.702820 
	C195.671982,379.145569 194.249573,383.507935 193.314941,387.906464 
	C189.867477,404.130951 186.421310,420.355652 182.919815,436.838562 
	C186.853561,436.838562 190.323547,436.838562 194.152695,436.838562 
	C196.214462,427.113037 198.047394,417.297546 200.408127,407.610687 
	C203.787170,393.745361 212.948990,384.328217 225.210922,377.938751 
	C231.882843,374.462067 236.528748,378.115204 235.462311,385.544312 
	C234.682358,390.977631 233.476044,396.353363 232.359497,401.733978 
	C229.944427,413.371948 227.464966,424.996552 224.963715,436.854736 
	C228.979538,436.854736 232.436401,436.854736 236.171066,436.854736 
	C238.245148,427.168884 240.026917,417.505890 242.419052,407.996399 
	C245.878922,394.242249 254.904282,384.715668 267.056671,378.118866 
	C269.208679,376.950623 273.317780,376.594635 274.884857,377.872498 
	C276.707123,379.358521 277.051788,383.014099 277.413574,385.808868 
	C277.658234,387.699280 276.874634,389.739502 276.466461,391.695099 
	C273.344482,406.653442 270.201782,421.607452 267.027069,436.746155 
	C270.903320,436.746155 274.480591,436.746155 278.229309,436.746155 
	C280.202301,427.587189 282.213501,418.662018 284.031769,409.697693 
	C285.950836,400.236481 288.321838,390.805237 289.334808,381.238037 
	C290.510529,370.133820 282.698029,364.007629 271.955688,366.490479 
	C264.002747,368.328613 257.863403,373.008209 252.305756,378.664062 
	C250.997681,379.995300 249.722000,381.358398 248.066269,383.088348 
	C247.753540,381.714722 247.529694,381.230377 247.552353,380.757812 
	C248.088745,369.569550 239.615646,363.265137 227.485184,367.084351 
	C219.245163,369.678680 213.228027,375.420624 206.903763,380.959747 
M185.481781,319.836029 
	C189.434372,319.836029 193.386948,319.836029 197.580215,319.836029 
	C197.580215,283.536896 197.580215,247.717758 197.580215,211.550629 
	C196.136444,212.169327 194.914825,212.623978 193.753937,213.200851 
	C179.787292,220.141235 165.875229,227.194122 151.832962,233.977615 
	C148.851227,235.417999 147.886047,237.065002 147.907852,240.380310 
	C148.072052,265.344971 147.993057,290.311188 148.008682,315.276917 
	C148.009583,316.711487 148.173309,318.145935 148.276932,319.836029 
	C160.573563,319.836029 172.530136,319.836029 185.481781,319.836029 
M515.137268,254.667862 
	C508.174164,259.480499 508.173950,259.480804 501.429413,254.692657 
	C499.937866,253.633743 498.446747,252.574249 496.958160,251.511215 
	C489.570496,246.235550 482.183777,240.958588 474.554108,235.508789 
	C474.554108,263.964142 474.554108,291.797852 474.554108,319.558167 
	C491.195526,319.558167 507.444122,319.558167 523.749512,319.558167 
	C523.749512,295.910889 523.749512,272.543396 523.749512,248.547012 
	C520.758728,250.646667 518.227600,252.423599 515.137268,254.667862 
M166.170273,345.352722 
	C153.771072,332.298706 138.394501,329.691772 121.694321,333.517059 
	C93.437973,339.989441 72.352554,369.089783 74.287704,398.207520 
	C76.136505,426.026001 96.821983,442.536346 124.381531,438.190430 
	C148.847351,434.332367 170.159775,412.499084 175.091812,386.035309 
	C177.793701,371.537811 176.234192,357.841980 166.170273,345.352722 
M514.421875,434.009064 
	C515.697144,433.640503 516.997620,433.342010 518.243958,432.892975 
	C541.518311,424.508240 556.848083,409.143280 560.551331,383.944580 
	C564.020630,360.337494 553.196838,342.576324 531.719849,336.370789 
	C517.062195,332.135620 502.070709,334.547119 487.197113,333.946930 
	C480.373627,368.566620 473.665619,402.600311 466.860504,437.126831 
	C482.917389,436.585327 498.442993,438.543549 514.421875,434.009064 
M154.573837,456.999847 
	C152.470474,456.999847 150.367126,456.999847 148.364975,456.999847 
	C148.364975,474.046112 148.364975,490.569336 148.364975,506.891602 
	C164.978668,506.891602 181.226379,506.891602 197.604614,506.891602 
	C197.604614,490.215973 197.604614,473.820648 197.604614,456.999847 
	C183.440689,456.999847 169.500610,456.999847 154.573837,456.999847 
M474.167206,496.473541 
	C474.167206,499.923615 474.167206,503.373688 474.167206,506.864563 
	C491.043091,506.864563 507.405670,506.864563 523.777466,506.864563 
	C523.777466,490.153564 523.777466,473.750275 523.777466,457.307068 
	C507.185760,457.307068 490.818695,457.307068 474.167206,457.307068 
	C474.167206,470.234894 474.167206,482.857147 474.167206,496.473541 
M699.950745,430.347748 
	C703.335144,436.876190 708.941711,440.122040 715.950623,438.734650 
	C720.818665,437.771088 725.589478,435.258026 729.840881,432.552795 
	C733.648254,430.130127 736.686157,426.498138 739.713989,423.720337 
	C740.343079,428.428162 741.038269,433.631104 741.793274,439.281311 
	C746.365234,437.742340 749.616943,436.647827 752.122559,435.804413 
	C749.257568,412.042542 759.923340,390.780792 762.006104,368.267334 
	C759.644104,367.930054 757.171082,367.698853 754.749573,367.211670 
	C736.741028,363.588501 721.181702,367.473297 710.026184,382.837952 
	C699.883362,396.807831 694.128967,412.056732 699.950745,430.347748 
M588.115295,438.930237 
	C598.362732,437.231842 605.186218,430.305573 611.486755,423.001617 
	C612.182739,428.491516 612.833374,433.623962 613.551147,439.285553 
	C618.089966,437.749084 621.440247,436.614960 623.778259,435.823486 
	C621.292297,411.888245 631.722351,390.616394 633.877930,368.234344 
	C631.273987,367.870636 628.829468,367.349976 626.364319,367.219910 
	C620.087585,366.888824 613.667053,365.791473 607.542542,366.667450 
	C579.845764,370.628967 565.403503,406.416779 570.221375,426.074738 
	C572.360840,434.804169 577.872681,438.889130 588.115295,438.930237 
M305.972656,395.508057 
	C301.919708,405.377960 299.395081,415.507385 301.973907,426.176483 
	C304.413391,436.269012 312.673218,441.463531 322.364685,438.006317 
	C328.098114,435.961060 333.125885,431.789612 338.247864,428.251343 
	C340.294312,426.837677 341.740326,424.554810 343.209442,422.942230 
	C343.899994,428.357239 344.571716,433.624664 345.295074,439.297089 
	C349.827972,437.748810 353.080688,436.637787 355.610931,435.773560 
	C352.772583,412.006409 363.407440,390.750305 365.534698,368.273529 
	C363.085022,367.918945 360.610046,367.680206 358.185669,367.190765 
	C339.713074,363.461334 324.198486,367.968262 312.847931,383.653137 
	C310.327301,387.136261 308.433777,391.073212 305.972656,395.508057 
M668.522217,385.115784 
	C669.078674,382.739990 669.635132,380.364197 670.235718,377.799835 
	C677.226440,377.799835 683.856201,377.799835 690.698547,377.799835 
	C691.447449,374.519897 692.141724,371.478943 692.924011,368.052734 
	C685.972229,368.052734 679.342407,368.052734 672.242676,368.052734 
	C673.466675,361.895386 674.612915,356.129303 675.785950,350.228394 
	C663.903503,351.680176 663.599426,351.629486 661.834534,362.213867 
	C661.056213,366.881012 658.668213,368.620667 654.566833,369.377747 
	C650.039978,370.213379 647.264404,372.291321 649.694153,377.846130 
	C652.286072,377.846130 655.057739,377.846130 658.335999,377.846130 
	C655.426758,391.303284 652.572021,404.261108 649.860718,417.248840 
	C649.288208,419.991089 648.905029,422.856018 649.013672,425.641815 
	C649.342590,434.072235 654.236511,438.789062 662.637024,438.999603 
	C671.202576,439.214325 678.307251,435.575439 685.063538,430.576599 
	C684.118896,427.527222 683.260803,424.756927 682.336243,421.772369 
	C679.218689,423.677002 676.730896,425.884155 673.836914,426.782379 
	C670.583435,427.792084 665.841248,429.094910 663.814819,427.552765 
	C661.742676,425.975769 662.015808,421.124695 661.592712,417.666443 
	C661.420227,416.256989 662.106262,414.738617 662.421692,413.274078 
	C664.383423,404.163422 666.350891,395.053955 668.522217,385.115784 
M391.696869,409.389740 
	C395.161560,402.830383 398.202393,395.998260 402.201904,389.783020 
	C406.847260,382.564056 412.689453,376.559967 422.729095,379.402618 
	C423.496277,376.145477 424.007507,373.366852 424.821350,370.679932 
	C425.752075,367.607239 424.474426,366.192383 421.587799,366.070160 
	C419.793182,365.994202 417.923798,366.171539 416.182648,366.610596 
	C409.243225,368.360474 405.107788,373.623657 401.019653,378.943665 
	C400.096527,380.145020 398.890564,381.129059 397.104187,382.929199 
	C398.465851,376.665344 399.526367,371.786987 400.631104,366.705139 
	C389.150116,367.680725 389.150665,367.680847 387.012054,377.936462 
	C386.842072,378.751465 386.652863,379.562469 386.481079,380.377106 
	C382.532593,399.102295 378.585297,417.827789 374.590088,436.779388 
	C378.543854,436.779388 382.151215,436.779388 385.823975,436.779388 
	C387.746124,427.777191 389.623566,418.984375 391.696869,409.389740 
z"/>
<path fill="#FBFBFB" opacity="1.000000" stroke="none" 
	d="
M298.191711,60.066887 
	C238.020630,90.171898 178.197220,120.139618 118.049026,150.270050 
	C115.165939,144.452179 112.454887,138.981461 109.562210,133.144241 
	C111.304932,132.206619 112.853462,131.321533 114.445900,130.524155 
	C190.507675,92.438210 266.582367,54.378059 342.605225,16.214619 
	C345.666473,14.677864 347.693176,14.834729 350.508820,16.878838 
	C403.008698,54.992664 455.601013,92.979073 508.511688,131.236435 
	C552.627319,99.064453 596.809082,66.844215 641.442078,34.294888 
	C636.715088,27.642239 632.040710,21.063608 626.827576,13.726826 
	C650.406494,11.198993 673.316284,8.742890 696.991577,6.204726 
	C687.058777,27.681341 677.319580,48.739365 667.304016,70.394966 
	C662.345093,63.471302 657.635010,56.895111 652.700256,50.005180 
	C604.486816,85.096184 556.494385,120.026375 508.472229,154.978180 
	C455.188568,116.507950 401.890869,78.074409 348.696533,39.498367 
	C345.698364,37.324139 343.626007,37.163227 340.366211,38.860897 
	C326.521515,46.071136 312.497772,52.937580 298.191711,60.066887 
z"/>
<path fill="#030303" opacity="1.000000" stroke="none" 
	d="
M184.984253,319.836029 
	C172.530136,319.836029 160.573563,319.836029 148.276932,319.836029 
	C148.173309,318.145935 148.009583,316.711487 148.008682,315.276917 
	C147.993057,290.311188 148.072052,265.344971 147.907852,240.380310 
	C147.886047,237.065002 148.851227,235.417999 151.832962,233.977615 
	C165.875229,227.194122 179.787292,220.141235 193.753937,213.200851 
	C194.914825,212.623978 196.136444,212.169327 197.580215,211.550629 
	C197.580215,247.717758 197.580215,283.536896 197.580215,319.836029 
	C193.386948,319.836029 189.434372,319.836029 184.984253,319.836029 
z"/>
<path fill="#030303" opacity="1.000000" stroke="none" 
	d="
M515.416870,254.434189 
	C518.227600,252.423599 520.758728,250.646667 523.749512,248.547012 
	C523.749512,272.543396 523.749512,295.910889 523.749512,319.558167 
	C507.444122,319.558167 491.195526,319.558167 474.554108,319.558167 
	C474.554108,291.797852 474.554108,263.964142 474.554108,235.508789 
	C482.183777,240.958588 489.570496,246.235550 496.958160,251.511215 
	C498.446747,252.574249 499.937866,253.633743 501.429413,254.692657 
	C508.173950,259.480804 508.174164,259.480499 515.416870,254.434189 
z"/>
<path fill="#060606" opacity="1.000000" stroke="none" 
	d="
M166.404266,345.619934 
	C176.234192,357.841980 177.793701,371.537811 175.091812,386.035309 
	C170.159775,412.499084 148.847351,434.332367 124.381531,438.190430 
	C96.821983,442.536346 76.136505,426.026001 74.287704,398.207520 
	C72.352554,369.089783 93.437973,339.989441 121.694321,333.517059 
	C138.394501,329.691772 153.771072,332.298706 166.404266,345.619934 
M86.988823,394.498810 
	C87.045944,395.994934 87.035896,397.497162 87.170219,398.986298 
	C89.372681,423.404175 109.596321,435.213806 132.088165,425.229065 
	C150.661362,416.983887 164.424164,393.608459 163.259338,372.286346 
	C162.054138,350.225250 145.282959,338.064514 123.891670,343.740997 
	C102.993340,349.286621 88.157883,369.320251 86.988823,394.498810 
z"/>
<path fill="#060606" opacity="1.000000" stroke="none" 
	d="
M514.015747,434.074463 
	C498.442993,438.543549 482.917389,436.585327 466.860504,437.126831 
	C473.665619,402.600311 480.373627,368.566620 487.197113,333.946930 
	C502.070709,334.547119 517.062195,332.135620 531.719849,336.370789 
	C553.196838,342.576324 564.020630,360.337494 560.551331,383.944580 
	C556.848083,409.143280 541.518311,424.508240 518.243958,432.892975 
	C516.997620,433.342010 515.697144,433.640503 514.015747,434.074463 
M492.128571,368.662018 
	C488.357117,387.896484 484.585632,407.130920 480.658813,427.157654 
	C488.320007,426.729370 495.290436,426.557098 502.217224,425.914520 
	C530.707886,423.271637 550.240662,400.780518 548.189758,373.157867 
	C547.156982,359.247833 539.249023,349.056702 525.569214,346.238342 
	C516.383057,344.345764 506.814789,344.308197 497.143616,343.415375 
	C495.385040,352.197388 493.820740,360.009247 492.128571,368.662018 
z"/>
<path fill="#080808" opacity="1.000000" stroke="none" 
	d="
M207.429855,381.447479 
	C213.228027,375.420624 219.245163,369.678680 227.485184,367.084351 
	C239.615646,363.265137 248.088745,369.569550 247.552353,380.757812 
	C247.529694,381.230377 247.753540,381.714722 248.066269,383.088348 
	C249.722000,381.358398 250.997681,379.995300 252.305756,378.664062 
	C257.863403,373.008209 264.002747,368.328613 271.955688,366.490479 
	C282.698029,364.007629 290.510529,370.133820 289.334808,381.238037 
	C288.321838,390.805237 285.950836,400.236481 284.031769,409.697693 
	C282.213501,418.662018 280.202301,427.587189 278.229309,436.746155 
	C274.480591,436.746155 270.903320,436.746155 267.027069,436.746155 
	C270.201782,421.607452 273.344482,406.653442 276.466461,391.695099 
	C276.874634,389.739502 277.658234,387.699280 277.413574,385.808868 
	C277.051788,383.014099 276.707123,379.358521 274.884857,377.872498 
	C273.317780,376.594635 269.208679,376.950623 267.056671,378.118866 
	C254.904282,384.715668 245.878922,394.242249 242.419052,407.996399 
	C240.026917,417.505890 238.245148,427.168884 236.171066,436.854736 
	C232.436401,436.854736 228.979538,436.854736 224.963715,436.854736 
	C227.464966,424.996552 229.944427,413.371948 232.359497,401.733978 
	C233.476044,396.353363 234.682358,390.977631 235.462311,385.544312 
	C236.528748,378.115204 231.882843,374.462067 225.210922,377.938751 
	C212.948990,384.328217 203.787170,393.745361 200.408127,407.610687 
	C198.047394,417.297546 196.214462,427.113037 194.152695,436.838562 
	C190.323547,436.838562 186.853561,436.838562 182.919815,436.838562 
	C186.421310,420.355652 189.867477,404.130951 193.314941,387.906464 
	C194.249573,383.507935 195.671982,379.145569 195.995941,374.702820 
	C196.357529,369.743652 199.153534,368.400360 203.286987,367.984375 
	C204.932556,367.818756 206.560852,367.481720 209.013229,367.093475 
	C208.071014,371.475220 207.187073,375.585876 206.182404,380.386536 
	C206.517731,381.200134 206.973785,381.323792 207.429855,381.447479 
z"/>
<path fill="#010101" opacity="1.000000" stroke="none" 
	d="
M155.067169,456.999847 
	C169.500610,456.999847 183.440689,456.999847 197.604614,456.999847 
	C197.604614,473.820648 197.604614,490.215973 197.604614,506.891602 
	C181.226379,506.891602 164.978668,506.891602 148.364975,506.891602 
	C148.364975,490.569336 148.364975,474.046112 148.364975,456.999847 
	C150.367126,456.999847 152.470474,456.999847 155.067169,456.999847 
z"/>
<path fill="#010101" opacity="1.000000" stroke="none" 
	d="
M474.167206,495.976501 
	C474.167206,482.857147 474.167206,470.234894 474.167206,457.307068 
	C490.818695,457.307068 507.185760,457.307068 523.777466,457.307068 
	C523.777466,473.750275 523.777466,490.153564 523.777466,506.864563 
	C507.405670,506.864563 491.043091,506.864563 474.167206,506.864563 
	C474.167206,503.373688 474.167206,499.923615 474.167206,495.976501 
z"/>
<path fill="#070707" opacity="1.000000" stroke="none" 
	d="
M699.796387,429.997162 
	C694.128967,412.056732 699.883362,396.807831 710.026184,382.837952 
	C721.181702,367.473297 736.741028,363.588501 754.749573,367.211670 
	C757.171082,367.698853 759.644104,367.930054 762.006104,368.267334 
	C759.923340,390.780792 749.257568,412.042542 752.122559,435.804413 
	C749.616943,436.647827 746.365234,437.742340 741.793274,439.281311 
	C741.038269,433.631104 740.343079,428.428162 739.713989,423.720337 
	C736.686157,426.498138 733.648254,430.130127 729.840881,432.552795 
	C725.589478,435.258026 720.818665,437.771088 715.950623,438.734650 
	C708.941711,440.122040 703.335144,436.876190 699.796387,429.997162 
M725.416016,381.858337 
	C719.254333,387.239624 714.501099,393.818176 712.521179,401.632080 
	C710.841309,408.261932 710.073242,415.357513 710.367310,422.183868 
	C710.637451,428.454926 715.389160,430.453644 721.171936,427.866516 
	C722.674805,427.194122 724.126282,426.323639 725.445374,425.335876 
	C741.630310,413.216187 746.917542,395.850677 749.029114,376.787628 
	C740.326355,374.344360 732.679810,375.561829 725.416016,381.858337 
z"/>
<path fill="#070707" opacity="1.000000" stroke="none" 
	d="
M587.689209,438.968140 
	C577.872681,438.889130 572.360840,434.804169 570.221375,426.074738 
	C565.403503,406.416779 579.845764,370.628967 607.542542,366.667450 
	C613.667053,365.791473 620.087585,366.888824 626.364319,367.219910 
	C628.829468,367.349976 631.273987,367.870636 633.877930,368.234344 
	C631.722351,390.616394 621.292297,411.888245 623.778259,435.823486 
	C621.440247,436.614960 618.089966,437.749084 613.551147,439.285553 
	C612.833374,433.623962 612.182739,428.491516 611.486755,423.001617 
	C605.186218,430.305573 598.362732,437.231842 587.689209,438.968140 
M581.494080,417.383728 
	C581.765930,421.551270 581.594910,426.161224 586.034485,428.290985 
	C590.653320,430.506653 594.257874,427.287689 597.846375,424.929199 
	C598.814270,424.293030 599.659607,423.466003 600.540527,422.702606 
	C614.466797,410.633911 618.754211,394.319458 620.886658,377.031311 
	C611.766541,374.135498 604.538208,375.434814 597.559448,381.640533 
	C587.182617,390.867920 581.960815,402.588562 581.494080,417.383728 
z"/>
<path fill="#070707" opacity="1.000000" stroke="none" 
	d="
M306.112061,395.154633 
	C308.433777,391.073212 310.327301,387.136261 312.847931,383.653137 
	C324.198486,367.968262 339.713074,363.461334 358.185669,367.190765 
	C360.610046,367.680206 363.085022,367.918945 365.534698,368.273529 
	C363.407440,390.750305 352.772583,412.006409 355.610931,435.773560 
	C353.080688,436.637787 349.827972,437.748810 345.295074,439.297089 
	C344.571716,433.624664 343.899994,428.357239 343.209442,422.942230 
	C341.740326,424.554810 340.294312,426.837677 338.247864,428.251343 
	C333.125885,431.789612 328.098114,435.961060 322.364685,438.006317 
	C312.673218,441.463531 304.413391,436.269012 301.973907,426.176483 
	C299.395081,415.507385 301.919708,405.377960 306.112061,395.154633 
M348.209930,398.501984 
	C349.785492,391.413544 351.361053,384.325104 352.992462,376.985413 
	C344.426697,374.454010 336.878174,375.218475 330.216492,380.815826 
	C319.283966,390.001617 313.770020,401.884705 313.209595,416.068451 
	C313.112671,418.521912 313.389771,421.083923 314.025848,423.453033 
	C315.348267,428.377930 318.867035,430.205872 323.522583,428.169556 
	C326.509613,426.863037 329.435089,425.067017 331.866180,422.903778 
	C339.175690,416.399414 344.718048,408.583466 348.209930,398.501984 
z"/>
<path fill="#080808" opacity="1.000000" stroke="none" 
	d="
M668.419312,385.529968 
	C666.350891,395.053955 664.383423,404.163422 662.421692,413.274078 
	C662.106262,414.738617 661.420227,416.256989 661.592712,417.666443 
	C662.015808,421.124695 661.742676,425.975769 663.814819,427.552765 
	C665.841248,429.094910 670.583435,427.792084 673.836914,426.782379 
	C676.730896,425.884155 679.218689,423.677002 682.336243,421.772369 
	C683.260803,424.756927 684.118896,427.527222 685.063538,430.576599 
	C678.307251,435.575439 671.202576,439.214325 662.637024,438.999603 
	C654.236511,438.789062 649.342590,434.072235 649.013672,425.641815 
	C648.905029,422.856018 649.288208,419.991089 649.860718,417.248840 
	C652.572021,404.261108 655.426758,391.303284 658.335999,377.846130 
	C655.057739,377.846130 652.286072,377.846130 649.694153,377.846130 
	C647.264404,372.291321 650.039978,370.213379 654.566833,369.377747 
	C658.668213,368.620667 661.056213,366.881012 661.834534,362.213867 
	C663.599426,351.629486 663.903503,351.680176 675.785950,350.228394 
	C674.612915,356.129303 673.466675,361.895386 672.242676,368.052734 
	C679.342407,368.052734 685.972229,368.052734 692.924011,368.052734 
	C692.141724,371.478943 691.447449,374.519897 690.698547,377.799835 
	C683.856201,377.799835 677.226440,377.799835 670.235718,377.799835 
	C669.635132,380.364197 669.078674,382.739990 668.419312,385.529968 
z"/>
<path fill="#080808" opacity="1.000000" stroke="none" 
	d="
M391.598938,409.790649 
	C389.623566,418.984375 387.746124,427.777191 385.823975,436.779388 
	C382.151215,436.779388 378.543854,436.779388 374.590088,436.779388 
	C378.585297,417.827789 382.532593,399.102295 386.481079,380.377106 
	C386.652863,379.562469 386.842072,378.751465 387.012054,377.936462 
	C389.150665,367.680847 389.150116,367.680725 400.631104,366.705139 
	C399.526367,371.786987 398.465851,376.665344 397.104187,382.929199 
	C398.890564,381.129059 400.096527,380.145020 401.019653,378.943665 
	C405.107788,373.623657 409.243225,368.360474 416.182648,366.610596 
	C417.923798,366.171539 419.793182,365.994202 421.587799,366.070160 
	C424.474426,366.192383 425.752075,367.607239 424.821350,370.679932 
	C424.007507,373.366852 423.496277,376.145477 422.729095,379.402618 
	C412.689453,376.559967 406.847260,382.564056 402.201904,389.783020 
	C398.202393,395.998260 395.161560,402.830383 391.598938,409.790649 
z"/>
<path fill="#FDFDFD" opacity="1.000000" stroke="none" 
	d="
M86.988876,394.036346 
	C88.157883,369.320251 102.993340,349.286621 123.891670,343.740997 
	C145.282959,338.064514 162.054138,350.225250 163.259338,372.286346 
	C164.424164,393.608459 150.661362,416.983887 132.088165,425.229065 
	C109.596321,435.213806 89.372681,423.404175 87.170219,398.986298 
	C87.035896,397.497162 87.045944,395.994934 86.988876,394.036346 
z"/>
<path fill="#FCFCFC" opacity="1.000000" stroke="none" 
	d="
M492.192505,368.241577 
	C493.820740,360.009247 495.385040,352.197388 497.143616,343.415375 
	C506.814789,344.308197 516.383057,344.345764 525.569214,346.238342 
	C539.249023,349.056702 547.156982,359.247833 548.189758,373.157867 
	C550.240662,400.780518 530.707886,423.271637 502.217224,425.914520 
	C495.290436,426.557098 488.320007,426.729370 480.658813,427.157654 
	C484.585632,407.130920 488.357117,387.896484 492.192505,368.241577 
z"/>
<path fill="#FEFEFE" opacity="1.000000" stroke="none" 
	d="
M207.166809,381.203613 
	C206.973785,381.323792 206.517731,381.200134 206.208069,380.787415 
	C206.537567,380.652130 206.720673,380.805939 207.166809,381.203613 
z"/>
<path fill="#FBFBFB" opacity="1.000000" stroke="none" 
	d="
M725.685059,381.617554 
	C732.679810,375.561829 740.326355,374.344360 749.029114,376.787628 
	C746.917542,395.850677 741.630310,413.216187 725.445374,425.335876 
	C724.126282,426.323639 722.674805,427.194122 721.171936,427.866516 
	C715.389160,430.453644 710.637451,428.454926 710.367310,422.183868 
	C710.073242,415.357513 710.841309,408.261932 712.521179,401.632080 
	C714.501099,393.818176 719.254333,387.239624 725.685059,381.617554 
z"/>
<path fill="#FAFAFA" opacity="1.000000" stroke="none" 
	d="
M581.493774,416.915466 
	C581.960815,402.588562 587.182617,390.867920 597.559448,381.640533 
	C604.538208,375.434814 611.766541,374.135498 620.886658,377.031311 
	C618.754211,394.319458 614.466797,410.633911 600.540527,422.702606 
	C599.659607,423.466003 598.814270,424.293030 597.846375,424.929199 
	C594.257874,427.287689 590.653320,430.506653 586.034485,428.290985 
	C581.594910,426.161224 581.765930,421.551270 581.493774,416.915466 
z"/>
<path fill="#FAFAFA" opacity="1.000000" stroke="none" 
	d="
M348.095398,398.884735 
	C344.718048,408.583466 339.175690,416.399414 331.866180,422.903778 
	C329.435089,425.067017 326.509613,426.863037 323.522583,428.169556 
	C318.867035,430.205872 315.348267,428.377930 314.025848,423.453033 
	C313.389771,421.083923 313.112671,418.521912 313.209595,416.068451 
	C313.770020,401.884705 319.283966,390.001617 330.216492,380.815826 
	C336.878174,375.218475 344.426697,374.454010 352.992462,376.985413 
	C351.361053,384.325104 349.785492,391.413544 348.095398,398.884735 
z"/>
</svg>